<svg width="100" height="31" viewBox="0 0 100 31" fill="none" xmlns="http://www.w3.org/2000/svg">
<path d="M10.6562 27.125V20.8281C10.6562 20.026 11.3072 19.375 12.1094 19.375H15.0156C15.8177 19.375 16.4687 20.026 16.4687 20.8281V27.125M16.4687 27.125H22.2812V4.57896M16.4687 27.125H26.1562V13.8854M22.2812 4.57896L24.2187 3.875M22.2812 4.57896L8.71875 9.51183M26.1562 13.8854L22.2812 12.5937M26.1562 13.8854L28.0937 14.5312M2.90625 27.125H4.84375M4.84375 27.125H28.0937M4.84375 27.125V3.875H8.71875V9.51183M2.90625 11.625L8.71875 9.51183" stroke="black" stroke-width="2.5" stroke-linecap="round" stroke-linejoin="round"/>
<path d="M33.712 14H31.864V5.768H35.836C36.284 5.768 36.696 5.876 37.072 6.092C37.456 6.3 37.76 6.592 37.984 6.968C38.208 7.344 38.32 7.764 38.32 8.228V8.3C38.32 8.756 38.208 9.18 37.984 9.572C37.768 9.956 37.468 10.26 37.084 10.484C36.708 10.708 36.292 10.82 35.836 10.82H33.712V14ZM33.712 9.368H35.404C35.708 9.368 35.96 9.268 36.16 9.068C36.36 8.86 36.46 8.62 36.46 8.348V8.276C36.46 7.996 36.36 7.756 36.16 7.556C35.968 7.348 35.716 7.244 35.404 7.244H33.712V9.368ZM43.0949 9.86C43.0949 9.588 43.0069 9.368 42.8309 9.2C42.6629 9.032 42.3869 8.948 42.0029 8.948C41.7789 8.948 41.5869 8.988 41.4269 9.068C41.2669 9.14 41.1429 9.232 41.0549 9.344C40.9749 9.456 40.9349 9.56 40.9349 9.656V9.752H39.2429C39.2269 9.656 39.2189 9.584 39.2189 9.536C39.2189 9.192 39.3309 8.884 39.5549 8.612C39.7869 8.34 40.1069 8.128 40.5149 7.976C40.9229 7.824 41.3909 7.748 41.9189 7.748H42.1709C43.0349 7.748 43.6909 7.92 44.1389 8.264C44.5869 8.6 44.8109 9.064 44.8109 9.656V12.488C44.8109 12.632 44.8429 12.74 44.9069 12.812C44.9789 12.884 45.0629 12.92 45.1589 12.92C45.2389 12.92 45.3269 12.904 45.4229 12.872C45.5189 12.84 45.5949 12.812 45.6509 12.788V13.868C45.3549 14.036 45.0029 14.12 44.5949 14.12C44.1549 14.12 43.8189 14.032 43.5869 13.856C43.3549 13.672 43.2189 13.416 43.1789 13.088C42.6189 13.776 41.9309 14.12 41.1149 14.12C40.5069 14.12 40.0069 13.996 39.6149 13.748C39.2229 13.5 39.0269 13.028 39.0269 12.332C39.0269 11.764 39.1869 11.332 39.5069 11.036C39.8349 10.732 40.2869 10.528 40.8629 10.424C41.4389 10.32 42.1829 10.268 43.0949 10.268V9.86ZM43.0949 11.252C42.3349 11.252 41.7669 11.328 41.3909 11.48C41.0229 11.624 40.8389 11.864 40.8389 12.2C40.8389 12.464 40.9109 12.652 41.0549 12.764C41.2069 12.868 41.4349 12.92 41.7389 12.92C41.9469 12.92 42.1549 12.864 42.3629 12.752C42.5709 12.64 42.7429 12.48 42.8789 12.272C43.0229 12.064 43.0949 11.832 43.0949 11.576V11.252ZM49.9548 9.968C49.9548 9.72 49.8868 9.508 49.7508 9.332C49.6148 9.148 49.3988 9.056 49.1028 9.056C48.8228 9.056 48.6068 9.168 48.4548 9.392C48.3108 9.608 48.2388 9.88 48.2388 10.208V14H46.5107V7.868H47.8068L48.0228 8.768C48.0548 8.68 48.1348 8.556 48.2628 8.396C48.3988 8.236 48.5908 8.088 48.8388 7.952C49.0948 7.816 49.3948 7.748 49.7388 7.748C50.2908 7.748 50.7148 7.92 51.0108 8.264C51.3148 8.608 51.4668 9.064 51.4668 9.632C51.4668 9.752 51.4588 9.872 51.4428 9.992C51.4348 10.112 51.4268 10.196 51.4188 10.244H49.9548V9.968ZM56.1378 9.86C56.1378 9.588 56.0498 9.368 55.8738 9.2C55.7058 9.032 55.4298 8.948 55.0458 8.948C54.8218 8.948 54.6298 8.988 54.4698 9.068C54.3098 9.14 54.1858 9.232 54.0978 9.344C54.0178 9.456 53.9778 9.56 53.9778 9.656V9.752H52.2858C52.2698 9.656 52.2618 9.584 52.2618 9.536C52.2618 9.192 52.3738 8.884 52.5978 8.612C52.8298 8.34 53.1498 8.128 53.5578 7.976C53.9658 7.824 54.4338 7.748 54.9618 7.748H55.2138C56.0778 7.748 56.7338 7.92 57.1818 8.264C57.6298 8.6 57.8538 9.064 57.8538 9.656V12.488C57.8538 12.632 57.8858 12.74 57.9498 12.812C58.0218 12.884 58.1058 12.92 58.2018 12.92C58.2818 12.92 58.3698 12.904 58.4658 12.872C58.5618 12.84 58.6378 12.812 58.6938 12.788V13.868C58.3978 14.036 58.0458 14.12 57.6378 14.12C57.1978 14.12 56.8618 14.032 56.6298 13.856C56.3978 13.672 56.2618 13.416 56.2218 13.088C55.6618 13.776 54.9738 14.12 54.1578 14.12C53.5498 14.12 53.0498 13.996 52.6578 13.748C52.2658 13.5 52.0698 13.028 52.0698 12.332C52.0698 11.764 52.2298 11.332 52.5498 11.036C52.8778 10.732 53.3298 10.528 53.9058 10.424C54.4818 10.32 55.2258 10.268 56.1378 10.268V9.86ZM56.1378 11.252C55.3778 11.252 54.8098 11.328 54.4338 11.48C54.0658 11.624 53.8818 11.864 53.8818 12.2C53.8818 12.464 53.9538 12.652 54.0978 12.764C54.2498 12.868 54.4778 12.92 54.7818 12.92C54.9898 12.92 55.1978 12.864 55.4058 12.752C55.6138 12.64 55.7858 12.48 55.9218 12.272C56.0658 12.064 56.1378 11.832 56.1378 11.576V11.252ZM62.8657 7.748C63.2577 7.748 63.6097 7.832 63.9217 8C64.2337 8.168 64.4737 8.412 64.6417 8.732C65.0577 8.076 65.6537 7.748 66.4297 7.748C67.0057 7.748 67.4817 7.924 67.8577 8.276C68.2417 8.62 68.4337 9.1 68.4337 9.716V14H66.6817V10.064C66.6817 9.728 66.6097 9.472 66.4657 9.296C66.3217 9.112 66.1217 9.02 65.8657 9.02C65.5857 9.02 65.3497 9.132 65.1577 9.356C64.9657 9.58 64.8697 9.86 64.8697 10.196V14H63.1177V10.064C63.1177 9.736 63.0417 9.48 62.8897 9.296C62.7457 9.112 62.5457 9.02 62.2897 9.02C62.0097 9.02 61.7737 9.132 61.5817 9.356C61.3977 9.58 61.3057 9.86 61.3057 10.196V14H59.5537V7.868H60.8737C60.9217 8.068 60.9857 8.368 61.0657 8.768C61.2817 8.424 61.5417 8.168 61.8457 8C62.1577 7.832 62.4977 7.748 62.8657 7.748ZM75.9111 11.108C75.9111 11.724 75.7791 12.26 75.5151 12.716C75.2591 13.172 74.9031 13.52 74.4471 13.76C73.9911 14 73.4791 14.12 72.9111 14.12H72.7191C72.1511 14.12 71.6391 14 71.1831 13.76C70.7271 13.52 70.3671 13.172 70.1031 12.716C69.8471 12.26 69.7191 11.724 69.7191 11.108V10.76C69.7191 10.144 69.8471 9.608 70.1031 9.152C70.3671 8.696 70.7271 8.348 71.1831 8.108C71.6391 7.868 72.1511 7.748 72.7191 7.748H72.9111C73.4791 7.748 73.9911 7.868 74.4471 8.108C74.9031 8.348 75.2591 8.696 75.5151 9.152C75.7791 9.608 75.9111 10.144 75.9111 10.76V11.108ZM74.1351 10.448C74.1351 9.96 74.0111 9.588 73.7631 9.332C73.5231 9.076 73.2071 8.948 72.8151 8.948C72.4231 8.948 72.1031 9.076 71.8551 9.332C71.6151 9.588 71.4951 9.96 71.4951 10.448V11.42C71.4951 11.908 71.6151 12.28 71.8551 12.536C72.1031 12.792 72.4231 12.92 72.8151 12.92C73.2071 12.92 73.5231 12.792 73.7631 12.536C74.0111 12.28 74.1351 11.908 74.1351 11.42V10.448ZM82.7939 12.56C82.7939 12.68 82.8299 12.772 82.9019 12.836C82.9739 12.892 83.0539 12.92 83.1419 12.92C83.2219 12.92 83.3099 12.904 83.4059 12.872C83.5019 12.84 83.5779 12.812 83.6339 12.788V13.868C83.3379 14.036 82.9859 14.12 82.5779 14.12C81.7779 14.12 81.3139 13.828 81.1859 13.244C80.6819 13.828 80.0659 14.12 79.3379 14.12C78.7139 14.12 78.1979 13.952 77.7899 13.616C77.3899 13.28 77.1899 12.792 77.1899 12.152V7.868H78.9419V11.768C78.9419 12.08 79.0299 12.34 79.2059 12.548C79.3899 12.748 79.6219 12.848 79.9019 12.848C80.2139 12.848 80.4819 12.732 80.7059 12.5C80.9299 12.26 81.0419 11.972 81.0419 11.636V7.868H82.7939V12.56ZM86.0615 8.768C86.5655 8.088 87.2175 7.748 88.0175 7.748C88.6415 7.748 89.1535 7.916 89.5535 8.252C89.9615 8.588 90.1655 9.076 90.1655 9.716V14H88.4135V10.1C88.4135 9.788 88.3215 9.532 88.1375 9.332C87.9615 9.124 87.7335 9.02 87.4535 9.02C87.1415 9.02 86.8735 9.14 86.6495 9.38C86.4255 9.612 86.3135 9.896 86.3135 10.232V14H84.5615V7.868H85.8695L86.0615 8.768ZM95.0457 13.892C94.8857 13.956 94.6737 14.008 94.4097 14.048C94.1537 14.096 93.9257 14.12 93.7257 14.12C93.1097 14.12 92.6457 13.988 92.3337 13.724C92.0217 13.46 91.8657 13.02 91.8657 12.404V9.068H91.1937V7.868H91.9257L92.5377 5.912H93.6177V7.868H95.0457V9.068H93.6177V12.104C93.6177 12.424 93.6777 12.64 93.7977 12.752C93.9257 12.864 94.0937 12.92 94.3017 12.92C94.3977 12.92 94.5217 12.904 94.6737 12.872C94.8257 12.84 94.9497 12.804 95.0457 12.764V13.892Z" fill="black"/>
<path d="M33.712 24H31.864V15.768H35.836C36.284 15.768 36.696 15.876 37.072 16.092C37.456 16.3 37.76 16.592 37.984 16.968C38.208 17.344 38.32 17.764 38.32 18.228V18.3C38.32 18.756 38.208 19.18 37.984 19.572C37.768 19.956 37.468 20.26 37.084 20.484C36.708 20.708 36.292 20.82 35.836 20.82H33.712V24ZM33.712 19.368H35.404C35.708 19.368 35.96 19.268 36.16 19.068C36.36 18.86 36.46 18.62 36.46 18.348V18.276C36.46 17.996 36.36 17.756 36.16 17.556C35.968 17.348 35.716 17.244 35.404 17.244H33.712V19.368ZM42.7829 19.968C42.7829 19.72 42.7149 19.508 42.5789 19.332C42.4429 19.148 42.2269 19.056 41.9309 19.056C41.6509 19.056 41.4349 19.168 41.2829 19.392C41.1389 19.608 41.0669 19.88 41.0669 20.208V24H39.3389V17.868H40.6349L40.8509 18.768C40.8829 18.68 40.9629 18.556 41.0909 18.396C41.2269 18.236 41.4189 18.088 41.6669 17.952C41.9229 17.816 42.2229 17.748 42.5669 17.748C43.1189 17.748 43.5429 17.92 43.8389 18.264C44.1429 18.608 44.2949 19.064 44.2949 19.632C44.2949 19.752 44.2869 19.872 44.2709 19.992C44.2629 20.112 44.2549 20.196 44.2469 20.244H42.7829V19.968ZM51.126 21.108C51.126 21.724 50.994 22.26 50.73 22.716C50.474 23.172 50.118 23.52 49.662 23.76C49.206 24 48.694 24.12 48.126 24.12H47.934C47.366 24.12 46.854 24 46.398 23.76C45.942 23.52 45.582 23.172 45.318 22.716C45.062 22.26 44.934 21.724 44.934 21.108V20.76C44.934 20.144 45.062 19.608 45.318 19.152C45.582 18.696 45.942 18.348 46.398 18.108C46.854 17.868 47.366 17.748 47.934 17.748H48.126C48.694 17.748 49.206 17.868 49.662 18.108C50.118 18.348 50.474 18.696 50.73 19.152C50.994 19.608 51.126 20.144 51.126 20.76V21.108ZM49.35 20.448C49.35 19.96 49.226 19.588 48.978 19.332C48.738 19.076 48.422 18.948 48.03 18.948C47.638 18.948 47.318 19.076 47.07 19.332C46.83 19.588 46.71 19.96 46.71 20.448V21.42C46.71 21.908 46.83 22.28 47.07 22.536C47.318 22.792 47.638 22.92 48.03 22.92C48.422 22.92 48.738 22.792 48.978 22.536C49.226 22.28 49.35 21.908 49.35 21.42V20.448ZM53.9887 18.636C54.4367 18.044 55.0127 17.748 55.7167 17.748C56.1967 17.748 56.6287 17.864 57.0127 18.096C57.3967 18.328 57.7007 18.68 57.9247 19.152C58.1487 19.624 58.2607 20.208 58.2607 20.904V21.036C58.2607 21.7 58.1567 22.264 57.9487 22.728C57.7407 23.192 57.4567 23.54 57.0967 23.772C56.7447 24.004 56.3447 24.12 55.8967 24.12C55.5127 24.12 55.1727 24.04 54.8767 23.88C54.5887 23.72 54.3567 23.524 54.1807 23.292V26.172H52.4287V17.868H53.8087L53.9887 18.636ZM56.4847 20.4C56.4847 19.928 56.3767 19.568 56.1607 19.32C55.9447 19.072 55.6687 18.948 55.3327 18.948C54.9967 18.948 54.7207 19.072 54.5047 19.32C54.2887 19.568 54.1807 19.928 54.1807 20.4V21.396C54.1807 21.86 54.2887 22.22 54.5047 22.476C54.7207 22.724 54.9967 22.848 55.3327 22.848C55.6687 22.848 55.9447 22.724 56.1607 22.476C56.3767 22.22 56.4847 21.86 56.4847 21.396V20.4ZM65.2534 21.708C65.2534 22.244 65.1254 22.696 64.8694 23.064C64.6134 23.424 64.2734 23.692 63.8494 23.868C63.4334 24.036 62.9774 24.12 62.4814 24.12H62.2894C61.7214 24.12 61.2094 24 60.7534 23.76C60.2974 23.52 59.9374 23.176 59.6734 22.728C59.4174 22.272 59.2894 21.732 59.2894 21.108V20.76C59.2894 20.144 59.4214 19.608 59.6854 19.152C59.9494 18.696 60.3054 18.348 60.7534 18.108C61.2094 17.868 61.7214 17.748 62.2894 17.748H62.4814C62.9774 17.748 63.4374 17.852 63.8614 18.06C64.2854 18.26 64.6254 18.556 64.8814 18.948C65.1374 19.332 65.2654 19.788 65.2654 20.316V21.228H61.0654V21.516C61.0654 21.916 61.1814 22.252 61.4134 22.524C61.6534 22.788 61.9774 22.92 62.3854 22.92C62.7534 22.92 63.0414 22.82 63.2494 22.62C63.4654 22.412 63.5734 22.108 63.5734 21.708H65.2534ZM62.3014 18.948C61.9494 18.948 61.6614 19.072 61.4374 19.32C61.2214 19.568 61.0974 19.884 61.0654 20.268H63.4894C63.4894 19.86 63.3934 19.54 63.2014 19.308C63.0174 19.068 62.7174 18.948 62.3014 18.948ZM70.0173 19.968C70.0173 19.72 69.9493 19.508 69.8133 19.332C69.6773 19.148 69.4613 19.056 69.1653 19.056C68.8853 19.056 68.6693 19.168 68.5173 19.392C68.3733 19.608 68.3013 19.88 68.3013 20.208V24H66.5732V17.868H67.8693L68.0853 18.768C68.1173 18.68 68.1973 18.556 68.3253 18.396C68.4613 18.236 68.6533 18.088 68.9013 17.952C69.1573 17.816 69.4573 17.748 69.8013 17.748C70.3533 17.748 70.7773 17.92 71.0733 18.264C71.3773 18.608 71.5293 19.064 71.5293 19.632C71.5293 19.752 71.5213 19.872 71.5053 19.992C71.4973 20.112 71.4893 20.196 71.4813 20.244H70.0173V19.968ZM75.7683 23.892C75.6083 23.956 75.3963 24.008 75.1323 24.048C74.8763 24.096 74.6483 24.12 74.4483 24.12C73.8323 24.12 73.3683 23.988 73.0563 23.724C72.7443 23.46 72.5883 23.02 72.5883 22.404V19.068H71.9163V17.868H72.6483L73.2603 15.912H74.3403V17.868H75.7683V19.068H74.3403V22.104C74.3403 22.424 74.4003 22.64 74.5203 22.752C74.6483 22.864 74.8163 22.92 75.0243 22.92C75.1203 22.92 75.2443 22.904 75.3963 22.872C75.5483 22.84 75.6723 22.804 75.7683 22.764V23.892ZM76.8855 15.36H78.6615V16.74H76.8855V15.36ZM76.8975 24V17.868H78.6495V24H76.8975ZM85.9253 21.708C85.9253 22.244 85.7973 22.696 85.5413 23.064C85.2853 23.424 84.9453 23.692 84.5213 23.868C84.1053 24.036 83.6493 24.12 83.1533 24.12H82.9613C82.3933 24.12 81.8813 24 81.4253 23.76C80.9693 23.52 80.6093 23.176 80.3453 22.728C80.0893 22.272 79.9613 21.732 79.9613 21.108V20.76C79.9613 20.144 80.0933 19.608 80.3573 19.152C80.6213 18.696 80.9773 18.348 81.4253 18.108C81.8813 17.868 82.3933 17.748 82.9613 17.748H83.1533C83.6493 17.748 84.1093 17.852 84.5333 18.06C84.9573 18.26 85.2973 18.556 85.5533 18.948C85.8093 19.332 85.9373 19.788 85.9373 20.316V21.228H81.7373V21.516C81.7373 21.916 81.8533 22.252 82.0853 22.524C82.3253 22.788 82.6493 22.92 83.0573 22.92C83.4253 22.92 83.7133 22.82 83.9213 22.62C84.1373 22.412 84.2453 22.108 84.2453 21.708H85.9253ZM82.9733 18.948C82.6213 18.948 82.3333 19.072 82.1093 19.32C81.8933 19.568 81.7693 19.884 81.7373 20.268H84.1613C84.1613 19.86 84.0653 19.54 83.8733 19.308C83.6893 19.068 83.3893 18.948 82.9733 18.948ZM88.3491 22.128C88.3491 22.408 88.4731 22.612 88.7211 22.74C88.9691 22.86 89.2771 22.92 89.6451 22.92C89.9651 22.92 90.2491 22.872 90.4971 22.776C90.7531 22.68 90.8811 22.528 90.8811 22.32C90.8811 22.096 90.7651 21.936 90.5331 21.84C90.3011 21.744 89.9411 21.66 89.4531 21.588C88.9411 21.5 88.5211 21.404 88.1931 21.3C87.8651 21.196 87.5811 21.016 87.3411 20.76C87.1091 20.504 86.9931 20.148 86.9931 19.692C86.9931 19.276 87.1131 18.924 87.3531 18.636C87.6011 18.34 87.9251 18.12 88.3251 17.976C88.7331 17.824 89.1771 17.748 89.6571 17.748H89.8971C90.3211 17.748 90.7211 17.82 91.0971 17.964C91.4811 18.1 91.7891 18.296 92.0211 18.552C92.2531 18.8 92.3691 19.084 92.3691 19.404C92.3691 19.468 92.3651 19.528 92.3571 19.584C92.3491 19.632 92.3451 19.66 92.3451 19.668H90.8091C90.8091 19.188 90.4411 18.948 89.7051 18.948C89.3691 18.948 89.0971 18.996 88.8891 19.092C88.6891 19.188 88.5891 19.32 88.5891 19.488C88.5891 19.688 88.6971 19.828 88.9131 19.908C89.1371 19.988 89.4851 20.064 89.9571 20.136C90.4931 20.224 90.9251 20.32 91.2531 20.424C91.5891 20.52 91.8811 20.7 92.1291 20.964C92.3771 21.22 92.5011 21.584 92.5011 22.056C92.5011 22.784 92.2451 23.312 91.7331 23.64C91.2211 23.96 90.5691 24.12 89.7771 24.12H89.3811C88.8851 24.12 88.4411 24.044 88.0491 23.892C87.6571 23.74 87.3491 23.524 87.1251 23.244C86.9091 22.964 86.8011 22.644 86.8011 22.284L86.8131 22.044H88.3491V22.128Z" fill="black"/>
</svg>
